<svg width="100" height="100" viewBox="0 0 100 100" fill="none" xmlns="http://www.w3.org/2000/svg">
  <rect width="100" height="100" rx="20" fill="#E0F2FE"/>
  <path d="M50 25C36.19 25 25 36.19 25 50C25 63.81 36.19 75 50 75C63.81 75 75 63.81 75 50C75 36.19 63.81 25 50 25ZM70 52.5H55V67.5C55 68.88 53.88 70 52.5 70H47.5C46.12 70 45 68.88 45 67.5V52.5H30C28.62 52.5 27.5 51.38 27.5 50V45C27.5 43.62 28.62 42.5 30 42.5H45V27.5C45 26.12 46.12 25 47.5 25H52.5C53.88 25 55 26.12 55 27.5V42.5H70C71.38 42.5 72.5 43.62 72.5 45V50C72.5 51.38 71.38 52.5 70 52.5Z" fill="#0369A1"/>
  <path d="M30 80C42.59 80 50 72.5 50 60" stroke="#0EA5E9" stroke-width="5" stroke-linecap="round"/>
  <path d="M70 80C57.41 80 50 72.5 50 60" stroke="#0EA5E9" stroke-width="5" stroke-linecap="round"/>
</svg> 